<svg width="618" height="402" viewBox="0 0 618 402" fill="none" xmlns="http://www.w3.org/2000/svg">
<g clip-path="url(#clip0_2132_1153)">
<path d="M423.3 401.49L368.69 401.64L298.47 270.9L228.89 401.63L174.07 401.36L252.31 263.76L119.25 263.71L87.26 329.81L52.07 401.68L0 401.33L100.49 202.22L202.02 0L298.59 184.6L372.8 43.18L395.22 0.24L516.49 219.56L617.92 401.52L565.29 401.68L462.14 214.88L395.11 92.46L383.05 116.45L324.33 227.41L423.29 401.49H423.3ZM139.96 222L269.44 221.96L201.99 92.61L178.66 142.3L139.96 222Z" fill="#FEFEFE"/>
<path d="M432.16 229.56C436.46 242.34 432.03 255.68 421.95 263.34C411.86 271 397.05 271.49 386.6 263.68C376.15 255.87 371.63 242.53 375.56 230.09C379.36 218.08 390.42 209.72 403.11 209.41C415.97 209.1 427.68 216.25 432.16 229.56Z" fill="#FEFEFE"/>
</g>
<defs>
<clipPath id="clip0_2132_1153">
<rect width="617.92" height="401.68" fill="white"/>
</clipPath>
</defs>
</svg>
